# xmcd
#
# Track frame offsets: 
#        150
#        15062
#        33025
#        46062
#        59250
#        77512
#        94737
#        109662
#        122350
#        137612
#        151662
#        165475
#        180300
#        193975
#        207350
#        220512
#
# Disc length: 3126 seconds
#
# Revision: 3
# Processed by: cddbd v1.5.2PL0 Copyright (c) Steve Scherf et al.
# Submitted via: ExactAudioCopyFreeDBPlugin 1.0
#
DISCID=b30c3410
DTITLE=Varius Artist - Country - The Seventies
DYEAR=1993
DGENRE=Country
TTITLE0=Bellamy Brothers - Lovers Live Longer
TTITLE1=Billy Swan - I Can Help
TTITLE2=Lynn Anderson - Rose Garden
TTITLE3=Tanya Tucker - Delta Dawn
TTITLE4=Johnny Cash - One Piece At A Time
TTITLE5=Ray Price - For The Good Times
TTITLE6=Kate Taylor - Rodeo
TTITLE7=Janie Frickie - What're You Doing Tonight
TTITLE8=Johnny Duncan - Thinking Of A Rendezvous
TTITLE9=Charlie Rich - We Love Each Other
TTITLE10=Lester Flatt and Earl Scruggs - Dueling Banjos
TTITLE11=David Allan Coe - Willie,Waylon And Me
TTITLE12=Willie Nelson - Heartbreak Hotel
TTITLE13=Johnny Paycheck - Slide Off Your Satin Sheets
TTITLE14=Bobby Bare - Sleep Tight Goodnight Man
TTITLE15=George Jones - The Grand Tour
EXTD=
EXTT0=
EXTT1=
EXTT2=
EXTT3=
EXTT4=
EXTT5=
EXTT6=
EXTT7=
EXTT8=
EXTT9=
EXTT10=
EXTT11=
EXTT12=
EXTT13=
EXTT14=
EXTT15=
PLAYORDER=
